<svg width="2604" height="720" viewBox="0 0 2604 720" fill="none" xmlns="http://www.w3.org/2000/svg">
<path fill-rule="evenodd" clip-rule="evenodd" d="M1839.32 0H1453.34C1440.67 0 1431.34 3 1425.34 9C1420 14.3333 1417.34 23.3334 1417.34 36V157C1417.34 162.047 1417.76 166.564 1418.61 170.553L1839.32 0ZM1261.06 234.418L1183.87 33C1179.87 21.6666 1173.53 13.3333 1164.87 8.00002C1156.87 2.66667 1146.53 0 1133.87 0H864.867C851.534 0 840.534 2.66667 831.867 8.00002C823.867 13.3333 817.867 21.6666 813.867 33L726.867 260C713.534 294.667 703.534 325 696.867 351C690.867 377 687.867 400 687.867 420V466.784L946.346 362H916.867L963.867 210C966.534 204 969.201 199.667 971.867 197C975.201 194.333 978.867 193 982.867 193H1007.87C1011.87 193 1015.2 194.333 1017.87 197C1021.2 199.667 1024.2 204 1026.87 210L1059.66 316.063L1261.06 234.418ZM687.867 574.688L1294.18 328.898C1296.34 336.584 1298.24 343.951 1299.87 351C1306.53 377 1309.87 400 1309.87 420V684C1309.87 696.667 1306.87 706 1300.87 712C1295.53 717.333 1286.53 720 1273.87 720H1122.87C1109.53 720 1099.53 717.333 1092.87 712C1086.87 706 1083.87 696.667 1083.87 684V544H906.867V684C906.867 696.667 903.867 706 897.867 712C892.534 717.333 883.534 720 870.867 720H723.867C711.201 720 701.867 717.333 695.867 712C690.534 706 687.867 696.667 687.867 684V574.688ZM544 525.105V498C544 485.333 541 476 535 470C529.667 463.333 520.667 459 508 457L221 380C214.333 378.667 209.667 376.667 207 374C205 371.333 204 367 204 361C204 355 205 350.667 207 348C209.667 345.333 214.333 343.333 221 342L508 265C520.667 263 529.667 259 535 253C541 246.333 544 236.667 544 224V92C544 79.3333 541 70.3333 535 65C529.667 59.6667 520.667 58.3333 508 61L127 170C85.6667 182 54 198.667 32 220C10.6667 240.667 0 275.667 0 325V397C0 446.333 10.6667 481.667 32 503C54 523.667 85.6667 540 127 552L332.577 610.813L544 525.105ZM488.626 655.457L543.94 633.034C543.489 644.114 540.509 652.103 535 657C529.667 662.333 520.667 663.667 508 661L488.626 655.457ZM1552.34 224.245L1915.34 77.0899V157C1915.34 169.667 1912.34 179 1906.34 185C1901 190.333 1892 193 1879.34 193H1782.34V529H1879.34C1892 529 1901 532 1906.34 538C1912.34 543.333 1915.34 552.333 1915.34 565V684C1915.34 696.667 1912.34 706 1906.34 712C1901 717.333 1892 720 1879.34 720H1453.34C1440.67 720 1431.34 717.333 1425.34 712C1420 706 1417.34 696.667 1417.34 684V565C1417.34 552.333 1420 543.333 1425.34 538C1431.34 532 1440.67 529 1453.34 529H1552.34V224.245ZM2095.8 661L2476.8 552C2518.14 540 2549.47 523.667 2570.8 503C2592.8 481.667 2603.8 446.333 2603.8 397V325C2603.8 275.667 2592.8 240.667 2570.8 220C2549.47 198.667 2518.14 182 2476.8 170L2095.8 61C2083.14 58.3333 2073.8 59.6667 2067.8 65C2062.47 70.3333 2059.8 79.3333 2059.8 92V224C2059.8 236.667 2062.47 246.333 2067.8 253C2073.8 259 2083.14 263 2095.8 265L2382.8 342C2389.47 343.333 2393.8 345.333 2395.8 348C2398.47 350.667 2399.8 355 2399.8 361C2399.8 367 2398.47 371.333 2395.8 374C2393.8 376.667 2389.47 378.667 2382.8 380L2239.3 418.5L2095.8 457C2083.14 459 2073.8 463.333 2067.8 470C2062.47 476 2059.8 485.333 2059.8 498V630C2059.8 642.667 2062.47 651.667 2067.8 657C2073.8 662.333 2083.14 663.667 2095.8 661Z" fill="#E2E21E"/>
</svg>
