<svg width="1791" height="2000" viewBox="0 0 1791 2000" fill="none" xmlns="http://www.w3.org/2000/svg">
<path d="M261.347 1018.65H19.9608C8.94244 1018.65 0 1008.69 0 996.425C0 984.159 8.94244 974.203 19.9608 974.203H261.327C272.345 974.203 281.287 984.159 281.287 996.425C281.287 1008.69 272.365 1018.65 261.347 1018.65Z" fill="#A0A012"/>
<path d="M1770.16 1018.65H1528.77C1517.73 1018.65 1508.81 1008.69 1508.81 996.425C1508.81 984.159 1517.73 974.203 1528.77 974.203H1770.16C1781.2 974.203 1790.12 984.159 1790.12 996.425C1790.12 1008.69 1781.18 1018.65 1770.16 1018.65Z" fill="#A0A012"/>
<path d="M1343.16 519.807C1338.05 519.807 1332.94 517.629 1329.04 513.296C1321.24 504.607 1321.24 490.563 1329.04 481.874L1499.73 291.876C1507.53 283.187 1520.15 283.187 1527.95 291.876C1535.76 300.565 1535.76 314.609 1527.95 323.298L1357.27 513.296C1353.38 517.629 1348.27 519.807 1343.16 519.807Z" fill="#A0A012"/>
<path d="M895.062 313.152C884.044 313.152 875.102 303.197 875.102 290.93V22.222C875.102 9.95545 884.044 0 895.062 0C906.081 0 915.023 9.95545 915.023 22.222V290.93C915.023 303.219 906.081 313.152 895.062 313.152Z" fill="#A0A012"/>
<path d="M446.959 519.807C441.849 519.807 436.739 517.629 432.847 513.296L262.162 323.298C254.357 314.609 254.357 300.565 262.162 291.876C269.967 283.187 282.582 283.187 290.387 291.876L461.071 481.874C468.876 490.563 468.876 504.607 461.071 513.296C457.159 517.629 452.049 519.807 446.959 519.807Z" fill="#A0A012"/>
<path d="M894.418 1206.33C861.303 1206.33 829.546 1191.82 806.032 1165.65C780.182 1136.85 767.008 1096.96 769.883 1056.2C774.653 988.959 823.797 934.248 884.198 928.937C920.806 925.737 956.636 940.381 982.505 969.181C1008.37 997.981 1021.55 1037.87 1018.67 1078.62C1013.92 1145.87 964.78 1200.58 904.359 1205.91C901.025 1206.18 897.712 1206.33 894.418 1206.33ZM894.119 972.959C891.863 972.959 889.588 973.048 887.332 973.27C846.293 976.87 812.918 1014.02 809.685 1059.71C807.708 1087.49 816.671 1114.67 834.236 1134.25C851.822 1153.82 876.114 1163.78 901.185 1161.6C942.224 1158 975.619 1120.82 978.832 1075.16C980.808 1047.36 971.826 1020.2 954.261 1000.63C938.292 982.825 916.674 972.959 894.119 972.959Z" fill="#5C5C18"/>
<path d="M971.369 1628.3H931.447V1339.84C931.447 1317.15 944.202 1296.97 963.145 1289.68C971.229 1286.57 979.173 1282.9 986.738 1278.79C1004.74 1268.99 1026.5 1273.17 1040.87 1289.15L1044.45 1293.1L1097.02 1234.57L1093.49 1230.64C1079.1 1214.62 1075.34 1190.39 1084.13 1170.37C1087.88 1161.84 1091.17 1153.02 1093.93 1144.11C1100.49 1122.97 1118.6 1108.8 1139 1108.8H1143.79V1026.02H1138.98C1118.6 1026.02 1100.49 1011.84 1093.93 990.752C1091.15 981.774 1087.86 972.952 1084.13 964.463C1075.34 944.419 1079.1 920.197 1093.49 904.197L1097.02 900.264L1044.45 841.731L1040.89 845.665C1026.52 861.687 1004.78 865.842 986.758 856.065C979.113 851.909 971.189 848.22 963.145 845.131C944.202 837.865 931.447 817.71 931.447 794.999V789.643H857.093V794.999C857.093 817.71 844.358 837.865 825.395 845.154C817.331 848.265 809.387 851.931 801.802 856.065C783.797 865.865 762.04 861.687 747.668 845.687L744.135 841.754L691.538 900.286L695.071 904.22C709.463 920.242 713.216 944.441 704.413 964.463C700.66 973.019 697.347 981.863 694.612 990.73C688.045 1011.86 669.961 1026.04 649.561 1026.04H644.75V1108.82H649.561C669.941 1108.82 688.045 1123 694.612 1144.08C697.367 1152.95 700.66 1161.82 704.433 1170.42C713.216 1190.42 709.463 1214.64 695.091 1230.66L691.558 1234.59L744.155 1293.13L747.668 1289.19C762.08 1273.19 783.857 1269.04 801.802 1278.79C809.387 1282.95 817.331 1286.62 825.395 1289.7C844.358 1296.99 857.093 1317.15 857.093 1339.86V1628.32H817.171V1339.84C817.171 1336.13 815.195 1332.79 812.361 1331.7C802.74 1328.01 793.278 1323.64 784.236 1318.68C781.641 1317.28 778.168 1318.04 775.873 1320.62L766.072 1331.55C753.936 1344.99 734.274 1344.97 722.218 1331.55L657.006 1258.97C644.93 1245.48 644.95 1223.59 657.006 1210.17L666.847 1199.22C669.142 1196.66 669.841 1192.84 668.543 1189.91C664.052 1179.66 660.14 1169.13 656.866 1158.57C655.888 1155.46 652.874 1153.26 649.541 1153.26H635.808C618.721 1153.26 604.809 1137.79 604.809 1118.75V1016.11C604.809 997.085 618.721 981.597 635.808 981.597H649.541C652.874 981.597 655.868 979.397 656.866 976.241C660.14 965.663 664.072 955.13 668.523 944.953C669.801 942.019 669.102 938.197 666.827 935.642L656.986 924.686C644.91 911.242 644.91 889.353 656.966 875.887L722.198 803.287C734.274 789.865 753.916 789.843 766.032 803.265L775.893 814.265C778.188 816.821 781.641 817.598 784.256 816.132C793.278 811.221 802.72 806.843 812.341 803.154C815.195 802.065 817.171 798.71 817.171 794.999V779.71C817.171 760.688 831.084 745.199 848.171 745.199H940.369C957.456 745.199 971.369 760.688 971.369 779.71V794.999C971.369 798.71 973.345 802.043 976.179 803.132C985.74 806.821 995.182 811.176 1004.26 816.132C1006.94 817.532 1010.35 816.776 1012.65 814.243L1022.49 803.287C1034.58 789.821 1054.27 789.843 1066.32 803.287L1131.53 875.864C1143.61 889.331 1143.59 911.22 1131.53 924.664L1121.69 935.619C1119.4 938.175 1118.7 942.019 1119.98 944.93C1124.43 955.019 1128.36 965.552 1131.65 976.241C1132.63 979.374 1135.63 981.574 1138.96 981.574H1152.69C1169.78 981.574 1183.69 997.063 1183.69 1016.09V1118.73C1183.69 1137.75 1169.8 1153.24 1152.69 1153.24H1138.98C1135.65 1153.24 1132.63 1155.46 1131.65 1158.59C1128.36 1169.22 1124.45 1179.73 1119.98 1189.88C1118.7 1192.82 1119.4 1196.64 1121.69 1199.19L1131.53 1210.15C1143.59 1223.57 1143.61 1245.46 1131.57 1258.9L1066.32 1331.53C1054.23 1344.99 1034.54 1344.95 1022.49 1331.53L1012.65 1320.57C1010.35 1318.02 1006.88 1317.26 1004.28 1318.68C995.262 1323.62 985.8 1327.99 976.179 1331.68C973.345 1332.77 971.369 1336.1 971.369 1339.81V1628.3Z" fill="#E2E21E"/>
<path d="M1269.98 611.462C1161.29 496.018 1018.47 436.619 868.01 444.663C597.9 458.819 376.136 695.172 352.143 994.48C335.037 1207.97 417.255 1411.07 572.111 1537.76C620.656 1577.47 649.619 1643.92 649.619 1715.49V1880.47C649.619 1946.38 697.784 2000 756.988 2000H1049.63C1108.84 2000 1157 1946.38 1157 1880.47V1700.32C1157 1632.09 1186.44 1566.27 1237.74 1519.76C1365.41 1404.1 1438.63 1232.88 1438.63 1050.01C1438.63 882.703 1378.73 726.971 1269.98 611.462ZM1049.63 1955.54H756.988C719.801 1955.54 689.54 1921.85 689.54 1880.45V1737.69H1117.08V1880.45C1117.08 1921.85 1086.82 1955.54 1049.63 1955.54ZM1212.55 1485.27C1153.63 1538.65 1119.4 1614.16 1117.44 1693.25H688.402C682.893 1616.18 649.339 1545.78 595.744 1501.94C452.246 1384.52 376.056 1196.28 391.905 998.413C414.121 721.127 619.618 502.152 869.886 489.041C878.13 488.596 886.334 488.396 894.498 488.396C1024.9 488.396 1147.66 542.951 1242.43 643.617C1343.22 750.66 1398.71 894.992 1398.71 1049.99C1398.71 1219.41 1330.86 1378.08 1212.55 1485.27Z" fill="black"/>
</svg>
