<svg width="620" height="620" viewBox="0 0 620 620" fill="none" xmlns="http://www.w3.org/2000/svg">
<circle cx="310" cy="310" r="310" fill="#FFDE68"/>
<path d="M117.031 202.714H138.46V224.143H117.031V202.714ZM138.46 202.714H159.888V224.143H138.46V202.714ZM159.888 202.714H181.317V224.143H159.888V202.714ZM181.317 202.714H202.746V224.143H181.317V202.714ZM202.746 202.714H224.174V224.143H202.746V202.714ZM224.174 202.714H245.603V224.143H224.174V202.714ZM224.174 224.143H245.603V245.571H224.174V224.143ZM202.746 224.143H224.174V245.571H202.746V224.143ZM181.317 224.143H202.746V245.571H181.317V224.143ZM159.888 224.143H181.317V245.571H159.888V224.143ZM138.46 224.143H159.888V245.571H138.46V224.143ZM117.031 224.143H138.46V245.571H117.031V224.143ZM245.603 224.143H267.031V245.571H245.603V224.143ZM245.603 245.571H267.031V267H245.603V245.571ZM245.603 267H267.031V288.429H245.603V267ZM224.174 267H245.603V288.429H224.174V267ZM224.174 245.571H245.603V267H224.174V245.571ZM224.174 288.429H245.603V309.857H224.174V288.429ZM202.746 288.429H224.174V309.857H202.746V288.429ZM181.317 288.429H202.746V309.857H181.317V288.429ZM159.888 288.429H181.317V309.857H159.888V288.429ZM138.46 288.429H159.888V309.857H138.46V288.429ZM138.46 267H159.888V288.429H138.46V267ZM138.46 245.571H159.888V267H138.46V245.571ZM117.031 245.571H138.46V267H117.031V245.571ZM117.031 267H138.46V288.429H117.031V267ZM117.031 288.429H138.46V309.857H117.031V288.429ZM117.031 309.857H138.46V331.286H117.031V309.857ZM138.46 309.857H159.888V331.286H138.46V309.857ZM159.888 309.857H181.317V331.286H159.888V309.857ZM181.317 309.857H202.746V331.286H181.317V309.857ZM202.746 309.857H224.174V331.286H202.746V309.857ZM224.174 309.857H245.603V331.286H224.174V309.857ZM245.603 309.857H267.031V331.286H245.603V309.857ZM245.603 331.286H267.031V352.714H245.603V331.286ZM224.174 331.286H245.603V352.714H224.174V331.286ZM224.174 374.143H245.603V395.571H224.174V374.143ZM245.603 374.143H267.031V395.571H245.603V374.143ZM245.603 352.714H267.031V374.143H245.603V352.714ZM224.174 352.714H245.603V374.143H224.174V352.714ZM224.174 395.571H245.603V417H224.174V395.571ZM202.746 395.571H224.174V417H202.746V395.571ZM181.317 395.571H202.746V417H181.317V395.571ZM159.888 395.571H181.317V417H159.888V395.571ZM138.46 395.571H159.888V417H138.46V395.571ZM117.031 395.571H138.46V417H117.031V395.571ZM117.031 374.143H138.46V395.571H117.031V374.143ZM117.031 352.714H138.46V374.143H117.031V352.714ZM117.031 331.286H138.46V352.714H117.031V331.286ZM138.46 331.286H159.888V352.714H138.46V331.286ZM138.46 352.714H159.888V374.143H138.46V352.714ZM138.46 374.143H159.888V395.571H138.46V374.143ZM159.888 374.143H181.317V395.571H159.888V374.143ZM181.317 374.143H202.746V395.571H181.317V374.143ZM202.746 374.143H224.174V395.571H202.746V374.143ZM288.516 395.571H309.944V417H288.516V395.571ZM288.516 374.143H309.944V395.571H288.516V374.143ZM288.516 352.714H309.944V374.143H288.516V352.714ZM288.516 331.286H309.944V352.714H288.516V331.286ZM288.516 309.857H309.944V331.286H288.516V309.857ZM288.516 288.429H309.944V309.857H288.516V288.429ZM309.944 288.429H331.373V309.857H309.944V288.429ZM309.944 267H331.373V288.429H309.944V267ZM309.944 245.571H331.373V267H309.944V245.571ZM309.944 224.143H331.373V245.571H309.944V224.143ZM288.516 224.143H309.944V245.571H288.516V224.143ZM288.516 202.714H309.944V224.143H288.516V202.714ZM288.516 245.571H309.944V267H288.516V245.571ZM288.516 267H309.944V288.429H288.516V267ZM309.944 202.714H331.373V224.143H309.944V202.714ZM309.944 309.857H331.373V331.286H309.944V309.857ZM309.944 331.286H331.373V352.714H309.944V331.286ZM309.944 352.714H331.373V374.143H309.944V352.714ZM309.944 374.143H331.373V395.571H309.944V374.143ZM309.944 395.571H331.373V417H309.944V395.571ZM331.373 245.571H352.801V267H331.373V245.571ZM331.373 267H352.801V288.429H331.373V267ZM352.801 267H374.23V288.429H352.801V267ZM352.801 288.429H374.23V309.857H352.801V288.429ZM374.23 288.429H395.658V309.857H374.23V288.429ZM374.23 309.857H395.658V331.286H374.23V309.857ZM395.658 288.429H417.087V309.857H395.658V288.429ZM395.658 267H417.087V288.429H395.658V267ZM417.087 267H438.516V288.429H417.087V267ZM417.087 245.571H438.516V267H417.087V245.571ZM438.516 202.714H459.944V224.143H438.516V202.714ZM438.516 224.143H459.944V245.571H438.516V224.143ZM438.516 245.571H459.944V267H438.516V245.571ZM438.516 267H459.944V288.429H438.516V267ZM438.516 288.429H459.944V309.857H438.516V288.429ZM438.516 309.857H459.944V331.286H438.516V309.857ZM438.516 331.286H459.944V352.714H438.516V331.286ZM438.516 352.714H459.944V374.143H438.516V352.714ZM438.516 374.143H459.944V395.571H438.516V374.143ZM438.516 395.571H459.944V417H438.516V395.571ZM459.944 395.571H481.373V417H459.944V395.571ZM459.944 374.143H481.373V395.571H459.944V374.143ZM459.944 352.714H481.373V374.143H459.944V352.714ZM459.944 331.286H481.373V352.714H459.944V331.286ZM459.944 309.857H481.373V331.286H459.944V309.857ZM459.944 288.429H481.373V309.857H459.944V288.429ZM459.944 267H481.373V288.429H459.944V267ZM459.944 245.571H481.373V267H459.944V245.571ZM459.944 224.143H481.373V245.571H459.944V224.143ZM459.944 202.714H481.373V224.143H459.944V202.714ZM331.373 224.143H352.801V245.571H331.373V224.143ZM352.801 245.571H374.23V267H352.801V245.571ZM374.23 267H395.658V288.429H374.23V267ZM395.658 245.571H417.087V267H395.658V245.571ZM417.087 224.143H438.516V245.571H417.087V224.143Z" fill="#C29D15"/>
</svg>
