<svg width="3647" height="4774" viewBox="0 0 3647 4774" fill="none" xmlns="http://www.w3.org/2000/svg">
<mask id="mask0_20_20" style="mask-type:luminance" maskUnits="userSpaceOnUse" x="0" y="0" width="3647" height="4774">
<path d="M3646.64 0H0V4773.69H3646.64V0Z" fill="white"/>
</mask>
<g mask="url(#mask0_20_20)">
<path d="M3645.62 1743.79C3644.32 1692.29 3639.92 1641.49 3634.22 1591.89C3631.02 1562.69 3626.63 1533.49 3621.53 1504.19V1503.59C3559.93 1142.09 3383.32 813.688 3087.93 526.589C2772.82 219.689 2413.93 45.6885 2023.22 8.18849C1881.53 -5.81151 1736.03 -1.91141 1588.03 20.2886C1542.93 26.5886 1497.22 34.8885 1451.53 45.0885C1405.72 55.1885 1360.03 67.2885 1313.63 80.6885C1312.33 80.6885 1311.13 80.6886 1309.83 81.3886C1294.63 85.8886 1279.33 90.2886 1264.13 95.2886C1260.93 95.9886 1257.72 96.5886 1254.53 97.8886C1242.53 101.689 1231.03 105.489 1218.93 109.889C1217.03 110.589 1215.13 111.189 1213.13 111.789C1206.83 113.689 1201.12 116.288 1194.72 118.188C1183.32 121.988 1171.93 126.389 1160.43 130.889C1140.73 137.889 1122.33 145.489 1103.33 153.089C1085.53 160.689 1068.32 168.289 1051.22 175.889C1049.92 176.589 1049.33 176.589 1048.03 177.789C1040.43 180.989 1032.82 184.189 1025.22 188.589C1023.32 188.589 1021.43 189.889 1020.13 190.489C1008.73 195.589 997.925 201.289 987.125 206.389C981.425 209.589 975.025 212.789 969.325 215.989C966.125 217.289 963.625 218.489 961.125 220.489C944.625 228.689 928.725 237.689 912.225 245.889C893.825 256.689 875.325 267.489 856.925 278.289C853.125 281.489 848.725 283.988 844.225 287.188C832.125 293.588 820.725 301.189 809.325 308.789C799.725 314.589 790.825 320.889 782.025 327.289C766.825 337.389 752.225 347.589 737.525 357.789C700.625 385.089 664.425 413.089 630.125 442.289C612.925 456.889 595.825 472.189 579.325 487.389C562.825 502.689 546.225 517.889 530.425 534.389C519.625 545.189 508.825 555.989 498.025 566.789C490.425 575.089 482.825 583.989 475.225 591.589C466.325 601.188 457.425 611.289 448.525 620.789C440.325 630.389 431.325 640.488 423.125 650.688C422.425 651.988 421.225 653.189 420.525 654.489C405.325 672.289 390.725 690.089 376.125 709.089C373.525 712.289 371.025 716.089 367.825 719.889C367.825 719.889 367.225 720.488 367.225 721.188C360.825 728.788 354.525 737.089 348.725 745.989C340.525 756.789 332.825 766.889 325.925 778.389C318.325 789.189 310.625 799.989 303.125 811.389C290.425 830.489 277.725 850.189 265.625 870.489C262.425 875.489 259.325 880.589 256.125 886.389C255.425 887.689 254.225 888.888 253.625 890.188C249.125 897.788 244.725 904.789 240.925 913.089C233.925 923.888 227.525 935.888 221.225 947.388C214.825 958.788 208.525 970.889 202.725 982.989C196.425 994.389 190.725 1006.49 184.925 1018.59C181.825 1025.59 178.625 1031.89 174.825 1038.89C174.225 1040.19 173.525 1041.99 172.925 1043.39L163.325 1064.29C163.325 1064.99 162.725 1065.59 162.025 1066.19C158.825 1074.39 155.025 1082.69 151.925 1090.99C150.025 1094.79 148.125 1099.19 146.925 1103.09C145.625 1105.59 144.325 1108.09 143.725 1110.69C139.225 1119.49 135.425 1129.09 132.225 1138.59C130.925 1141.79 129.725 1144.39 129.125 1146.89C128.425 1147.49 128.425 1147.49 128.425 1148.19C120.825 1165.99 114.525 1184.39 107.425 1202.79C106.125 1207.79 104.325 1212.89 102.425 1217.99C96.7251 1233.89 91.6251 1249.79 87.1251 1265.69C84.6251 1271.99 82.625 1278.99 80.825 1285.39C80.125 1286.09 80.1251 1286.69 80.1251 1287.29C75.1251 1303.19 70.6249 1319.09 66.2249 1334.89V1336.79C64.9249 1339.29 64.3251 1341.79 63.6251 1344.39C59.1251 1361.59 54.7249 1378.69 50.2249 1395.89C50.2249 1397.19 50.2251 1398.39 49.6251 1399.69C47.7251 1407.29 46.425 1414.99 44.525 1422.49C36.925 1456.79 30.625 1491.09 24.825 1525.39C23.525 1532.99 22.325 1541.29 21.025 1548.19C21.025 1548.89 21.025 1548.89 21.025 1548.89C17.925 1569.19 15.325 1589.59 12.825 1609.89C10.325 1632.79 7.825 1655.69 6.425 1679.19C3.925 1710.29 1.925 1740.79 1.425 1771.29C-0.475 1817.09 -0.475 1862.09 1.425 1907.29C2.725 1945.39 5.22498 1984.09 9.02498 2022.29C9.62498 2029.89 10.325 2038.19 11.525 2045.79C19.125 2122.69 31.8251 2200.79 48.9251 2278.89C54.6251 2304.89 61.025 2330.99 68.025 2356.99C83.925 2419.89 103.625 2482.09 126.425 2544.39C127.125 2548.89 129.025 2552.59 130.925 2557.09C162.025 2642.19 195.725 2724.79 232.625 2806.09C247.825 2840.99 263.725 2874.69 280.925 2908.99C296.825 2942.09 313.325 2974.49 330.425 3006.79C348.825 3042.99 367.825 3077.99 387.625 3112.89C390.125 3117.39 392.625 3121.09 394.625 3125.59C428.925 3186.59 465.125 3246.89 502.625 3305.39C502.625 3306.09 503.325 3306.09 503.325 3306.69C535.725 3357.49 569.425 3408.99 604.325 3458.49C654.525 3531.59 707.225 3602.69 761.825 3672.59C768.825 3682.19 776.425 3691.69 784.025 3701.19C792.225 3711.29 800.525 3722.79 809.425 3732.99C820.225 3747.59 832.225 3761.59 843.725 3776.19C855.825 3790.09 866.625 3804.19 878.625 3818.09C895.825 3839.09 912.925 3859.39 930.725 3879.69C942.125 3893.09 953.525 3905.69 965.025 3919.09C967.625 3922.29 970.125 3924.79 972.625 3927.99C989.125 3946.39 1005.03 3964.89 1022.13 3983.29C1062.12 4028.39 1102.83 4073.49 1145.43 4117.99L1147.33 4119.89L1172.13 4145.29L1252.13 4228.59L1274.93 4252.09L1278.13 4255.29C1314.33 4292.19 1351.22 4328.39 1388.03 4364.59C1530.33 4503.09 1678.32 4638.99 1830.22 4773.69C1830.82 4772.99 1831.53 4772.39 1832.13 4771.79L1834.03 4773.69L1907.13 4700.59C1923.63 4684.09 1940.23 4668.19 1956.63 4651.69C1972.53 4635.79 1989.03 4619.89 2005.53 4604.09C2007.43 4601.59 2009.32 4600.29 2011.22 4598.39C2186.52 4429.99 2358.02 4268.09 2516.32 4094.59C2616.72 3985.39 2714.52 3873.49 2807.32 3759.79C2861.93 3693.69 2914.02 3627.09 2964.82 3559.09C2972.43 3548.99 2980.13 3538.79 2987.03 3529.29C3033.43 3466.99 3077.82 3403.49 3120.43 3338.69C3127.43 3327.89 3134.32 3317.09 3141.43 3306.29C3184.62 3240.19 3225.92 3172.29 3264.62 3103.59C3274.82 3085.19 3285.02 3066.19 3295.12 3047.69C3298.92 3040.09 3303.32 3033.09 3307.12 3025.49C3322.42 2996.89 3337.03 2968.99 3350.93 2940.39C3358.53 2924.49 3366.22 2909.29 3373.82 2893.39C3376.32 2888.39 3378.82 2882.59 3381.43 2877.49C3392.23 2855.19 3402.32 2832.99 3411.93 2810.19C3434.23 2761.89 3453.82 2712.99 3472.93 2663.39C3472.93 2662.79 3473.62 2662.09 3473.62 2662.09C3476.72 2654.49 3479.33 2646.89 3482.53 2639.29C3499.73 2592.89 3515.52 2546.49 3530.12 2499.49C3541.52 2465.19 3551.72 2430.89 3561.22 2395.99C3570.12 2361.69 3579.02 2327.39 3587.22 2292.49C3591.02 2277.89 3594.22 2263.29 3597.32 2248.69C3601.82 2227.09 3606.23 2206.09 3610.03 2185.19C3614.53 2161.69 3618.92 2137.59 3622.12 2113.39C3628.52 2072.19 3634.23 2031.49 3637.43 1990.79C3642.43 1943.19 3645.62 1896.19 3646.32 1849.79C3646.82 1813.69 3646.82 1778.09 3645.62 1743.79ZM3260.62 2588.09C3253.02 2608.39 3245.32 2627.49 3238.43 2645.29L3127.93 2885.99C3122.23 2896.79 3117.12 2908.19 3110.72 2918.39C3098.62 2941.89 3085.93 2965.99 3071.93 2990.19C3044.62 3039.69 3015.42 3089.89 2984.22 3139.49C2746.62 3215.69 2513.53 3306.59 2283.53 3411.39L1774.63 3649.59C1595.43 3730.89 1416.33 3812.19 1235.93 3890.99C1188.23 3839.49 1145.62 3791.29 1103.72 3742.99C1099.92 3738.49 1096.73 3733.49 1092.93 3729.59L954.425 3561.19C943.725 3547.69 933.525 3534.19 922.525 3520.29C1109.42 3442.79 1305.72 3359.39 1480.53 3280.99C2064.73 3018.49 2633.23 2707.89 3264.82 2576.59C3263.52 2580.49 3262.02 2584.19 3260.62 2588.09ZM1319.93 2021.39C1304.63 2018.19 1290.03 2014.99 1274.83 2011.29C1253.93 2007.49 1232.93 2002.39 1211.93 1997.89C1183.33 1991.49 1155.43 1985.79 1126.83 1979.49C1126.13 1976.89 1125.53 1973.69 1124.93 1971.19C1121.73 1952.09 1119.83 1933.79 1118.53 1913.99C1117.93 1899.39 1116.63 1884.79 1116.63 1870.19C1116.63 1864.49 1116.63 1858.09 1117.33 1852.39C1117.33 1816.19 1120.53 1779.99 1126.93 1744.39C1129.43 1732.99 1131.93 1721.59 1134.53 1709.49C1134.53 1706.29 1135.23 1703.79 1136.43 1700.59C1136.43 1699.29 1137.12 1698.09 1137.72 1696.79C1138.42 1692.99 1139.03 1689.79 1140.22 1685.99C1140.22 1685.39 1140.22 1684.69 1140.22 1684.69C1140.92 1681.49 1141.53 1678.29 1142.83 1675.19C1144.13 1671.39 1145.33 1667.59 1145.93 1663.69C1147.23 1660.59 1148.53 1657.99 1149.13 1654.79C1152.93 1643.39 1156.72 1631.99 1161.22 1620.49C1164.42 1611.59 1168.22 1602.69 1172.03 1594.49C1175.22 1586.19 1179.03 1577.99 1182.83 1570.29C1184.73 1566.49 1186.62 1563.29 1188.53 1559.49C1191.72 1552.49 1195.53 1544.89 1200.03 1537.29C1205.03 1527.69 1210.83 1518.19 1216.53 1508.69C1223.53 1496.69 1231.83 1484.59 1240.03 1473.79C1245.72 1464.29 1252.72 1454.69 1259.72 1445.79C1265.42 1438.19 1271.83 1430.59 1278.83 1422.99C1283.33 1417.29 1287.73 1411.59 1293.43 1405.79C1305.53 1391.19 1318.83 1377.79 1332.13 1365.09C1339.13 1358.09 1346.72 1351.19 1353.72 1345.39C1360.72 1338.99 1367.62 1333.29 1374.03 1328.19C1382.93 1320.59 1391.73 1312.89 1401.33 1306.59C1407.73 1302.09 1413.42 1297.69 1419.72 1293.19C1428.03 1287.49 1436.23 1281.79 1445.13 1276.69C1483.23 1252.49 1523.93 1231.59 1566.43 1215.09C1576.53 1211.29 1587.42 1207.49 1598.22 1203.69C1630.03 1193.59 1663.03 1184.59 1696.72 1179.49C1707.53 1176.99 1718.93 1175.69 1730.43 1174.49C1753.23 1171.29 1776.22 1169.99 1799.72 1169.39C1826.42 1169.39 1853.72 1170.09 1879.72 1173.19C1880.42 1173.19 1881.03 1173.19 1882.22 1173.79C1893.03 1174.49 1904.43 1175.69 1915.33 1177.59C1926.13 1179.49 1937.53 1181.39 1949.03 1183.99C1961.03 1186.49 1972.53 1189.09 1984.63 1192.29C1994.23 1194.79 2003.73 1197.29 2012.63 1200.49C2046.33 1210.59 2078.12 1223.29 2108.62 1238.59C2118.12 1243.09 2128.32 1248.09 2138.43 1253.79C2146.73 1257.59 2154.32 1262.69 2161.93 1267.19C2178.43 1277.29 2194.32 1288.19 2210.22 1299.59C2222.92 1308.49 2235.62 1318.69 2248.32 1328.79C2256.62 1335.79 2264.82 1342.79 2273.12 1350.39C2279.52 1356.79 2286.52 1362.49 2292.22 1369.49C2317.62 1394.29 2341.12 1421.59 2362.72 1450.89C2369.72 1459.79 2376.12 1469.29 2381.82 1478.89C2383.12 1480.79 2384.32 1482.09 2385.62 1483.89C2389.42 1488.99 2392.62 1493.99 2395.22 1499.19C2399.02 1504.89 2402.22 1510.59 2405.32 1516.39C2409.12 1521.49 2411.72 1526.49 2414.82 1532.29C2425.62 1552.59 2436.43 1574.29 2445.32 1596.49C2449.82 1606.59 2454.13 1617.49 2458.03 1628.29C2461.23 1636.49 2463.72 1644.79 2466.22 1653.69C2474.52 1677.89 2481.53 1702.59 2486.53 1728.69C2489.13 1740.79 2491.63 1752.19 2493.53 1763.59C2495.43 1773.69 2496.62 1783.29 2497.93 1794.09V1798.59C2497.93 1799.29 2498.62 1799.29 2497.93 1799.89C2499.82 1811.39 2501.12 1822.79 2501.12 1834.89V1835.49C2502.42 1847.59 2503.03 1858.99 2503.03 1871.09C2503.03 1886.99 2502.32 1902.89 2501.72 1918.09C2481.42 1925.69 2460.42 1932.69 2440.72 1940.89H2440.03C2403.13 1954.29 2366.92 1968.89 2330.12 1984.09C2324.42 1985.99 2319.32 1988.59 2314.22 1990.49C2225.92 2025.39 2138.93 2063.59 2051.82 2102.99C1975.02 2138.59 1869.53 2144.99 1785.03 2125.89C1629.93 2091.99 1474.93 2056.39 1319.93 2021.39ZM581.725 2983.19C837.125 2883.49 1089.93 2773.59 1342.13 2661.69C1347.23 2659.79 1351.72 2657.19 1356.72 2655.39C1389.82 2640.09 1423.43 2625.49 1456.43 2610.29C1480.63 2598.89 1504.72 2588.09 1529.53 2576.59C1562.62 2561.99 1595.63 2546.79 1628.63 2530.89C1638.83 2526.39 1649.62 2521.29 1659.72 2516.29C1708.62 2494.69 1756.33 2471.79 1804.53 2448.99C1939.22 2386.09 2073.92 2322.59 2209.22 2262.19C2285.42 2229.19 2361.03 2196.19 2437.93 2164.99C2447.53 2160.49 2457.03 2156.69 2466.53 2152.89C2545.33 2120.49 2626.02 2089.99 2706.62 2060.79C2897.82 1992.79 3093.43 1936.89 3295.53 1900.69C3322.23 1895.69 3348.93 1891.19 3375.53 1886.79C3388.23 1884.89 3400.92 1882.99 3413.62 1880.39C3411.12 1947.69 3404.83 2016.39 3394.53 2085.59C3391.43 2108.39 3387.52 2131.99 3383.12 2154.89L3381.82 2161.19C3378.62 2177.69 3375.42 2194.29 3371.72 2211.39L3362.82 2251.39C3358.32 2271.09 3353.32 2290.09 3348.22 2309.19C3346.12 2319.19 3343.23 2329.59 3340.43 2339.69C2910.73 2438.89 2491.73 2579.99 2085.43 2765.79L1576.43 3003.89C1317.43 3120.89 1058.62 3238.69 796.825 3348.49C789.625 3338.19 782.525 3327.79 775.525 3317.39C773.625 3314.89 771.725 3312.39 770.425 3309.79C739.325 3264.69 710.725 3220.29 683.425 3176.39C675.825 3164.29 668.125 3151.59 661.225 3139.49C629.425 3088.69 599.625 3037.79 572.325 2986.99C575.325 2985.79 578.525 2984.49 581.725 2983.19ZM1961.43 4340.09C1916.93 4383.29 1871.83 4427.79 1826.13 4472.29C1701.63 4359.19 1592.33 4255.69 1493.93 4157.79C1475.43 4139.29 1457.03 4120.89 1438.63 4102.49C1422.73 4087.19 1407.53 4071.39 1392.22 4055.49L1389.72 4052.89C1488.82 4010.99 1586.62 3968.39 1678.72 3927.09C2047.12 3761.29 2409.32 3576.49 2784.72 3429.69C2766.92 3455.09 2747.82 3479.89 2728.82 3503.99C2715.52 3521.19 2702.22 3537.69 2688.82 3554.19C2678.72 3568.19 2667.23 3582.19 2656.43 3595.49C2576.43 3693.99 2488.73 3796.19 2389.03 3907.39C2254.93 4055.59 2112.73 4193.99 1961.43 4340.09Z" fill="black"/>
<path d="M1577.12 2304.99C1567.42 2317.49 1561.52 2332.89 1550.82 2337.19C1533.62 2344.69 1517.02 2352.79 1499.82 2360.39C1499.52 2360.39 1499.22 2360.69 1498.92 2360.99C1470.12 2374.19 1441.62 2386.59 1412.62 2399.79C1386.02 2411.99 1358.82 2424.19 1331.92 2436.39C1327.82 2437.99 1323.82 2440.19 1319.42 2441.99C1042.92 2566.49 765.424 2688.19 483.524 2797.39C481.024 2798.29 478.524 2799.29 476.324 2800.19C463.124 2772.69 450.324 2745.09 438.424 2717.89C405.924 2645.29 375.224 2568.99 346.424 2490.79C345.824 2488.89 345.524 2487.29 344.524 2485.49L342.324 2478.29C321.024 2419.19 304.424 2364.39 290.724 2310.29C267.224 2218.99 251.024 2126.99 241.324 2034.69C244.124 2034.99 247.224 2035.29 250.124 2035.59C479.124 2064.99 707.724 2104.09 936.124 2151.99C1007.12 2166.69 1078.42 2182.29 1149.42 2198.59C1169.12 2202.99 1189.12 2207.69 1208.82 2212.39C1257.92 2223.99 1307.02 2235.89 1356.12 2248.09C1365.52 2250.29 1374.92 2252.79 1384.62 2254.99C1409.62 2261.19 1434.62 2267.79 1459.02 2274.39C1498.62 2284.29 1538.02 2294.39 1577.12 2304.99Z" fill="url(#paint0_linear_20_20)"/>
</g>
<defs>
<linearGradient id="paint0_linear_20_20" x1="909.224" y1="2034.69" x2="909.224" y2="2800.19" gradientUnits="userSpaceOnUse">
<stop offset="0.9999" stop-color="#9D9D25"/>
<stop offset="1" stop-color="#1C5739" stop-opacity="0.75"/>
</linearGradient>
</defs>
</svg>
